<svg width="112" height="96" viewBox="0 0 112 96" fill="none" xmlns="http://www.w3.org/2000/svg">
<mask id="mask0_7_53" style="mask-type:alpha" maskUnits="userSpaceOnUse" x="4" y="4" width="104" height="88">
<path d="M108 4H4V92H108V4Z" fill="url(#paint0_radial_7_53)"/>
</mask>
<g mask="url(#mask0_7_53)">
<g filter="url(#filter0_dd_7_53)">
<path d="M44 49C44 47.8954 44.8954 47 46 47H66C67.1046 47 68 47.8954 68 49V83.7299C68 85.4256 66.0223 86.3519 64.7196 85.2664L57.2804 79.067C56.5387 78.4489 55.4613 78.4489 54.7196 79.067L47.2804 85.2664C45.9777 86.3519 44 85.4256 44 83.7299V49Z" fill="white"/>
<path d="M46 46.5C44.6193 46.5 43.5 47.6193 43.5 49V83.7299C43.5 85.8495 45.9721 87.0074 47.6005 85.6505L55.0397 79.4511C55.596 78.9875 56.404 78.9875 56.9603 79.4511L64.3995 85.6505C66.0279 87.0074 68.5 85.8495 68.5 83.7299V49C68.5 47.6193 67.3807 46.5 66 46.5H46Z" stroke="#121826" stroke-opacity="0.08"/>
</g>
<g opacity="0.2" filter="url(#filter1_f_7_53)">
<path opacity="0.2" d="M50.8112 15.422C53.8012 12.8739 58.199 12.8739 61.189 15.422L63.8257 17.669C65.107 18.7609 66.7002 19.4208 68.3783 19.5547L71.8316 19.8303C75.7477 20.1428 78.8573 23.2525 79.1698 27.1685L79.4454 30.6218C79.5793 32.2999 80.2392 33.8931 81.3311 35.1744L83.5781 37.8111C86.1262 40.8011 86.1262 45.1989 83.5781 48.1889L81.3311 50.8256C80.2392 52.1069 79.5793 53.7001 79.4454 55.3782L79.1698 58.8315C78.8573 62.7475 75.7476 65.8572 71.8316 66.1697L68.3783 66.4453C66.7002 66.5792 65.107 67.2391 63.8257 68.331L61.189 70.578C58.199 73.1261 53.8012 73.1261 50.8112 70.578L48.1745 68.331C46.8932 67.2391 45.3 66.5792 43.6219 66.4453L40.1686 66.1697C36.2526 65.8572 33.1429 62.7475 32.8304 58.8315L32.5548 55.3782C32.4209 53.7001 31.761 52.1069 30.6691 50.8256L28.4221 48.1889C25.874 45.1989 25.874 40.8011 28.4221 37.8111L30.6691 35.1744C31.761 33.8931 32.4209 32.2999 32.5548 30.6218L32.8304 27.1685C33.1429 23.2524 36.2526 20.1428 40.1686 19.8303L43.6219 19.5547C45.3 19.4208 46.8932 18.7609 48.1745 17.669L50.8112 15.422Z" fill="#0899A7"/>
</g>
<g filter="url(#filter2_dd_7_53)">
<path d="M50.8112 12.422C53.8012 9.87386 58.199 9.87386 61.189 12.422L63.8257 14.669C65.107 15.7609 66.7002 16.4208 68.3783 16.5547L71.8316 16.8303C75.7477 17.1428 78.8573 20.2525 79.1698 24.1685L79.4454 27.6218C79.5793 29.2999 80.2392 30.8931 81.3311 32.1744L83.5781 34.8111C86.1262 37.8011 86.1262 42.1989 83.5781 45.1889L81.3311 47.8256C80.2392 49.1069 79.5793 50.7001 79.4454 52.3782L79.1698 55.8315C78.8573 59.7475 75.7476 62.8572 71.8316 63.1697L68.3783 63.4453C66.7002 63.5792 65.107 64.2391 63.8257 65.331L61.189 67.578C58.199 70.1261 53.8012 70.1261 50.8112 67.578L48.1745 65.331C46.8932 64.2391 45.3 63.5792 43.6219 63.4453L40.1686 63.1697C36.2526 62.8572 33.1429 59.7475 32.8304 55.8315L32.5548 52.3782C32.4209 50.7001 31.761 49.1069 30.6691 47.8256L28.4221 45.1889C25.874 42.1989 25.874 37.8011 28.4221 34.8111L30.6691 32.1744C31.761 30.8931 32.4209 29.2999 32.5548 27.6218L32.8304 24.1685C33.1429 20.2524 36.2526 17.1428 40.1686 16.8303L43.6219 16.5547C45.3 16.4208 46.8932 15.7609 48.1745 14.669L50.8112 12.422Z" fill="white"/>
<path d="M61.5133 12.0414C58.3364 9.33406 53.6638 9.33406 50.4869 12.0414L47.8502 14.2884C46.6489 15.3121 45.1554 15.9307 43.5821 16.0563L40.1289 16.3318C35.968 16.6639 32.664 19.9679 32.3319 24.1288L32.0564 27.582C31.9308 29.1553 31.3122 30.6488 30.2885 31.8501L28.0415 34.4868C25.3342 37.6637 25.3342 42.3363 28.0415 45.5132L30.2885 48.1499C31.3122 49.3512 31.9308 50.8447 32.0564 52.418L32.3319 55.8712C32.664 60.0321 35.968 63.3361 40.1289 63.6682L43.5821 63.9437C45.1554 64.0693 46.6489 64.6879 47.8502 65.7116L50.4869 67.9586C53.6638 70.6659 58.3364 70.6659 61.5133 67.9586L64.15 65.7116C65.3513 64.6879 66.8448 64.0693 68.4181 63.9437L71.8713 63.6682C76.0322 63.3361 79.3362 60.0321 79.6683 55.8712L79.9438 52.418C80.0694 50.8447 80.688 49.3512 81.7117 48.1499L83.9587 45.5132C86.666 42.3363 86.666 37.6637 83.9587 34.4868L81.7117 31.8501C80.688 30.6488 80.0694 29.1553 79.9438 27.582L79.6683 24.1288C79.3362 19.9679 76.0322 16.6639 71.8713 16.3318L68.4181 16.0563C66.8448 15.9307 65.3513 15.3121 64.15 14.2884L61.5133 12.0414Z" stroke="#121826" stroke-opacity="0.08"/>
</g>
<path opacity="0.6" d="M56 60C67.0457 60 76 51.0457 76 40C76 28.9543 67.0457 20 56 20C44.9543 20 36 28.9543 36 40C36 51.0457 44.9543 60 56 60Z" stroke="#E5E7EB" stroke-width="2"/>
<path d="M49 41L52.4373 44.4373C53.274 45.274 54.6502 45.2054 55.3994 44.2896L63 35" stroke="#0899A7" stroke-width="2" stroke-linecap="round"/>
</g>
<defs>
<filter id="filter0_dd_7_53" x="38" y="44" width="36" height="50.7357" filterUnits="userSpaceOnUse" color-interpolation-filters="sRGB">
<feFlood flood-opacity="0" result="BackgroundImageFix"/>
<feColorMatrix in="SourceAlpha" type="matrix" values="0 0 0 0 0 0 0 0 0 0 0 0 0 0 0 0 0 0 127 0" result="hardAlpha"/>
<feOffset dy="3"/>
<feGaussianBlur stdDeviation="2.5"/>
<feColorMatrix type="matrix" values="0 0 0 0 0.0705882 0 0 0 0 0.0941176 0 0 0 0 0.14902 0 0 0 0.04 0"/>
<feBlend mode="normal" in2="BackgroundImageFix" result="effect1_dropShadow_7_53"/>
<feColorMatrix in="SourceAlpha" type="matrix" values="0 0 0 0 0 0 0 0 0 0 0 0 0 0 0 0 0 0 127 0" result="hardAlpha"/>
<feOffset dy="1"/>
<feGaussianBlur stdDeviation="1"/>
<feColorMatrix type="matrix" values="0 0 0 0 0.0705882 0 0 0 0 0.0941176 0 0 0 0 0.14902 0 0 0 0.03 0"/>
<feBlend mode="normal" in2="effect1_dropShadow_7_53" result="effect2_dropShadow_7_53"/>
<feBlend mode="normal" in="SourceGraphic" in2="effect2_dropShadow_7_53" result="shape"/>
</filter>
<filter id="filter1_f_7_53" x="22.511" y="9.51093" width="66.9781" height="66.9781" filterUnits="userSpaceOnUse" color-interpolation-filters="sRGB">
<feFlood flood-opacity="0" result="BackgroundImageFix"/>
<feBlend mode="normal" in="SourceGraphic" in2="BackgroundImageFix" result="shape"/>
<feGaussianBlur stdDeviation="2" result="effect1_foregroundBlur_7_53"/>
</filter>
<filter id="filter2_dd_7_53" x="20.511" y="7.51089" width="70.9781" height="70.9782" filterUnits="userSpaceOnUse" color-interpolation-filters="sRGB">
<feFlood flood-opacity="0" result="BackgroundImageFix"/>
<feColorMatrix in="SourceAlpha" type="matrix" values="0 0 0 0 0 0 0 0 0 0 0 0 0 0 0 0 0 0 127 0" result="hardAlpha"/>
<feOffset dy="3"/>
<feGaussianBlur stdDeviation="2.5"/>
<feColorMatrix type="matrix" values="0 0 0 0 0.0705882 0 0 0 0 0.0941176 0 0 0 0 0.14902 0 0 0 0.04 0"/>
<feBlend mode="normal" in2="BackgroundImageFix" result="effect1_dropShadow_7_53"/>
<feColorMatrix in="SourceAlpha" type="matrix" values="0 0 0 0 0 0 0 0 0 0 0 0 0 0 0 0 0 0 127 0" result="hardAlpha"/>
<feOffset dy="1"/>
<feGaussianBlur stdDeviation="1"/>
<feColorMatrix type="matrix" values="0 0 0 0 0.0705882 0 0 0 0 0.0941176 0 0 0 0 0.14902 0 0 0 0.03 0"/>
<feBlend mode="normal" in2="effect1_dropShadow_7_53" result="effect2_dropShadow_7_53"/>
<feBlend mode="normal" in="SourceGraphic" in2="effect2_dropShadow_7_53" result="shape"/>
</filter>
<radialGradient id="paint0_radial_7_53" cx="0" cy="0" r="1" gradientUnits="userSpaceOnUse" gradientTransform="translate(56 16) rotate(90) scale(101 106.739)">
<stop offset="0.542079" stop-color="#C4C4C4"/>
<stop offset="0.757426" stop-color="#C4C4C4" stop-opacity="0"/>
</radialGradient>
</defs>
</svg>
