<svg width="112" height="96" viewBox="0 0 112 96" fill="none" xmlns="http://www.w3.org/2000/svg">
<mask id="mask0_7_80" style="mask-type:alpha" maskUnits="userSpaceOnUse" x="4" y="4" width="104" height="88">
<path d="M108 4H4V92H108V4Z" fill="url(#paint0_radial_7_80)"/>
</mask>
<g mask="url(#mask0_7_80)">
<g opacity="0.1" filter="url(#filter0_f_7_80)">
<path opacity="0.1" d="M56 89C78.0914 89 96 71.0914 96 49C96 26.9086 78.0914 9 56 9C33.9086 9 16 26.9086 16 49C16 71.0914 33.9086 89 56 89Z" stroke="#111827" stroke-width="2"/>
</g>
<g opacity="0.1" filter="url(#filter1_f_7_80)">
<path opacity="0.1" d="M56 97C82.5097 97 104 75.5097 104 49C104 22.4903 82.5097 1 56 1C29.4903 1 8 22.4903 8 49C8 75.5097 29.4903 97 56 97Z" stroke="#111827" stroke-width="2"/>
</g>
<g opacity="0.1" filter="url(#filter2_f_7_80)">
<path opacity="0.1" d="M56 81C73.6731 81 88 66.6731 88 49C88 31.3269 73.6731 17 56 17C38.3269 17 24 31.3269 24 49C24 66.6731 38.3269 81 56 81Z" stroke="#111827" stroke-width="2"/>
</g>
<g opacity="0.1" filter="url(#filter3_f_7_80)">
<path opacity="0.1" d="M56 65C64.8366 65 72 57.8366 72 49C72 40.1634 64.8366 33 56 33C47.1634 33 40 40.1634 40 49C40 57.8366 47.1634 65 56 65Z" stroke="#111827" stroke-width="2"/>
</g>
<g filter="url(#filter4_dd_7_80)">
<path d="M56 73C69.2548 73 80 62.2548 80 49C80 35.7452 69.2548 25 56 25C42.7452 25 32 35.7452 32 49C32 62.2548 42.7452 73 56 73Z" fill="white"/>
<path d="M55.9999 73.4444C69.5002 73.4444 80.4443 62.5003 80.4443 49C80.4443 35.4997 69.5002 24.5556 55.9999 24.5556C42.4997 24.5556 31.5555 35.4997 31.5555 49C31.5555 62.5003 42.4997 73.4444 55.9999 73.4444Z" stroke="#121826" stroke-opacity="0.08" stroke-width="0.888889"/>
</g>
<mask id="mask1_7_80" style="mask-type:alpha" maskUnits="userSpaceOnUse" x="34" y="27" width="44" height="44">
<path d="M56 71C68.1503 71 78 61.1503 78 49C78 36.8497 68.1503 27 56 27C43.8497 27 34 36.8497 34 49C34 61.1503 43.8497 71 56 71Z" fill="white"/>
</mask>
<g mask="url(#mask1_7_80)">
<path d="M45.0973 43.7029L47.0407 41.7595C47.2453 41.5549 47.5228 41.4399 47.8121 41.4399H49.5073C49.9944 41.4399 50.4225 41.7628 50.5563 42.2312L50.7976 43.0756C50.8453 43.2428 50.8524 43.4189 50.8183 43.5893L50.4383 45.4898C50.3703 45.8295 50.4677 46.1812 50.7008 46.4375L52.2335 48.1236C52.6625 48.5955 52.597 49.3332 52.0914 49.7221L50.1165 51.2413C49.7575 51.5174 49.2653 51.543 48.8796 51.3057L46.26 49.6936C46.0964 49.593 45.9623 49.4509 45.8712 49.2817L44.3551 46.4662C44.2059 46.189 44.1836 45.8608 44.2942 45.566L44.8472 44.0912C44.9019 43.9454 44.9872 43.813 45.0973 43.7029Z" fill="#E5E7EB"/>
<path d="M32.5504 45.8753L30.2376 46.409C29.7929 46.5117 29.4112 46.7953 29.1848 47.1916L27.7371 49.725C27.5096 50.1233 27.4598 50.5985 27.598 51.0359C28.3556 53.4332 29.54 57.3223 29.54 57.91C29.54 58.4595 30.0578 61.1191 30.4347 62.9576C30.5486 63.5129 30.9445 63.9672 31.4776 64.1597L40.1255 67.2826C40.2678 67.334 40.4165 67.3654 40.5674 67.3759L51.95 68.17H56.001C56.6556 68.17 57.2472 67.7799 57.505 67.1782L58.0692 65.8617C58.4198 65.0438 58.0524 64.0957 57.2423 63.7274L56.1553 63.2333C55.8773 63.107 55.6402 62.9054 55.4709 62.6513L53.57 59.8L52.0969 58.0814C51.9994 57.9677 51.8868 57.8679 51.7622 57.7848L49.6617 56.3845C49.5675 56.3217 49.467 56.2688 49.3618 56.2267L47.1455 55.3402C46.9309 55.2544 46.7006 55.215 46.4697 55.2246L41.8967 55.4151C41.0249 55.4515 40.2779 54.7973 40.1989 53.9284L39.8631 50.2342C39.8228 49.7907 39.6034 49.3828 39.2557 49.1046L37.2893 47.5315C37.1638 47.4311 37.0241 47.3497 36.8748 47.29L33.5261 45.9504C33.2161 45.8265 32.8756 45.8002 32.5504 45.8753Z" fill="#E5E7EB"/>
<path d="M59.3744 32.5843C60.3792 30.9518 61.8451 28.1744 62.5305 25.7338C62.9067 24.3943 64.7259 23.0549 66.0189 23.5686L82.0461 29.9355C82.3172 30.0432 82.5545 30.2214 82.7336 30.4517L87.6562 36.7807C87.9563 37.1665 88.0682 37.6663 87.9613 38.1432L84.7551 52.4476C84.6681 52.8359 84.4426 53.1791 84.1208 53.4131L82.2049 54.8065C81.85 55.0646 81.4063 55.1694 80.9734 55.0972L78.5587 54.6948C78.4599 54.6783 78.3627 54.6528 78.2685 54.6185L76.119 53.8369C75.6865 53.6796 75.3403 53.3476 75.1651 52.9221L73.7342 49.4471C73.614 49.1553 73.412 48.9044 73.1525 48.7248L70.4604 46.861C70.1867 46.6715 69.8618 46.57 69.5289 46.57H61.7226C61.3397 46.57 60.9691 46.4358 60.675 46.1907L55.1402 41.5785C54.825 41.3158 54.62 40.9443 54.5658 40.5376L54.2287 38.0098C54.1548 37.4556 54.369 36.902 54.7967 36.5418L59.0452 32.9642C59.1744 32.8554 59.2859 32.7281 59.3744 32.5843Z" fill="#E5E7EB"/>
<path d="M52.5808 25.5836L52.0987 24.3301C51.7049 23.3064 50.6124 22.7341 49.5466 22.9933L41.7426 24.8916C41.5289 24.9436 41.3243 25.0276 41.1357 25.1407L35.5484 28.4931C34.992 28.8269 34.6131 29.391 34.5145 30.0323L33.657 35.6056C33.6129 35.8923 33.6264 36.185 33.6968 36.4665L34.0827 38.01C34.2781 38.7917 34.8885 39.4021 35.6702 39.5975L37.3796 40.0249C37.5527 40.0682 37.7304 40.09 37.9088 40.09H39.8896C40.0098 40.09 40.1298 40.0801 40.2483 40.0604L42.8226 39.6313C43.1436 39.5778 43.4485 39.4532 43.7151 39.2666L45.3839 38.0984C45.7894 37.8146 46.0863 37.4014 46.2259 36.9266L47.1032 33.9437C47.2677 33.3846 47.6489 32.9146 48.162 32.6383L50.5124 31.3727C50.7489 31.2453 50.9598 31.0755 51.1346 30.8715L52.0311 29.8257C52.3295 29.4775 52.5107 29.044 52.5488 28.587L52.7187 26.548C52.746 26.2203 52.6989 25.8906 52.5808 25.5836Z" fill="#E5E7EB"/>
</g>
<g filter="url(#filter5_dd_7_80)">
<path fill-rule="evenodd" clip-rule="evenodd" d="M68.6628 27.6171C70.3783 26.4922 72.6961 26.9481 73.8397 28.6356L74.1722 29.1261C74.5689 29.7114 75.4311 29.7114 75.8278 29.1261L76.1603 28.6356C77.3039 26.9481 79.6217 26.4922 81.3372 27.6171C83.0527 28.742 83.5163 31.0219 82.3726 32.7093L75.8129 41.8653C75.414 42.4222 74.586 42.4222 74.1871 41.8653L67.6274 32.7093C66.4837 31.0219 66.9473 28.742 68.6628 27.6171Z" fill="#0899A7"/>
<path d="M82.7791 33.0005L82.7792 33.0006L82.7865 32.9898C84.0885 31.0688 83.5578 28.4753 81.6114 27.199C79.6699 25.9259 77.045 26.4391 75.7464 28.355L75.4139 28.8456C75.2156 29.1383 74.7844 29.1383 74.5861 28.8456L74.2536 28.355C72.955 26.4391 70.3301 25.9259 68.3886 27.199C66.4422 28.4753 65.9115 31.0688 67.2135 32.9898L67.2133 32.9899L67.2209 33.0005L73.7806 42.1565C74.379 42.9918 75.621 42.9918 76.2194 42.1565L82.7791 33.0005Z" stroke="#0899A7"/>
</g>
</g>
<defs>
<filter id="filter0_f_7_80" x="14.5" y="7.5" width="83" height="83" filterUnits="userSpaceOnUse" color-interpolation-filters="sRGB">
<feFlood flood-opacity="0" result="BackgroundImageFix"/>
<feBlend mode="normal" in="SourceGraphic" in2="BackgroundImageFix" result="shape"/>
<feGaussianBlur stdDeviation="0.25" result="effect1_foregroundBlur_7_80"/>
</filter>
<filter id="filter1_f_7_80" x="6.5" y="-0.5" width="99" height="99" filterUnits="userSpaceOnUse" color-interpolation-filters="sRGB">
<feFlood flood-opacity="0" result="BackgroundImageFix"/>
<feBlend mode="normal" in="SourceGraphic" in2="BackgroundImageFix" result="shape"/>
<feGaussianBlur stdDeviation="0.25" result="effect1_foregroundBlur_7_80"/>
</filter>
<filter id="filter2_f_7_80" x="22.5" y="15.5" width="67" height="67" filterUnits="userSpaceOnUse" color-interpolation-filters="sRGB">
<feFlood flood-opacity="0" result="BackgroundImageFix"/>
<feBlend mode="normal" in="SourceGraphic" in2="BackgroundImageFix" result="shape"/>
<feGaussianBlur stdDeviation="0.25" result="effect1_foregroundBlur_7_80"/>
</filter>
<filter id="filter3_f_7_80" x="38.5" y="31.5" width="35" height="35" filterUnits="userSpaceOnUse" color-interpolation-filters="sRGB">
<feFlood flood-opacity="0" result="BackgroundImageFix"/>
<feBlend mode="normal" in="SourceGraphic" in2="BackgroundImageFix" result="shape"/>
<feGaussianBlur stdDeviation="0.25" result="effect1_foregroundBlur_7_80"/>
</filter>
<filter id="filter4_dd_7_80" x="26.6666" y="22.3334" width="58.6666" height="58.6666" filterUnits="userSpaceOnUse" color-interpolation-filters="sRGB">
<feFlood flood-opacity="0" result="BackgroundImageFix"/>
<feColorMatrix in="SourceAlpha" type="matrix" values="0 0 0 0 0 0 0 0 0 0 0 0 0 0 0 0 0 0 127 0" result="hardAlpha"/>
<feOffset dy="2.66667"/>
<feGaussianBlur stdDeviation="2.22222"/>
<feColorMatrix type="matrix" values="0 0 0 0 0.0705882 0 0 0 0 0.0941176 0 0 0 0 0.14902 0 0 0 0.04 0"/>
<feBlend mode="normal" in2="BackgroundImageFix" result="effect1_dropShadow_7_80"/>
<feColorMatrix in="SourceAlpha" type="matrix" values="0 0 0 0 0 0 0 0 0 0 0 0 0 0 0 0 0 0 127 0" result="hardAlpha"/>
<feOffset dy="1.77778"/>
<feGaussianBlur stdDeviation="1.33333"/>
<feColorMatrix type="matrix" values="0 0 0 0 0.0705882 0 0 0 0 0.0941176 0 0 0 0 0.14902 0 0 0 0.08 0"/>
<feBlend mode="normal" in2="effect1_dropShadow_7_80" result="effect2_dropShadow_7_80"/>
<feBlend mode="normal" in="SourceGraphic" in2="effect2_dropShadow_7_80" result="shape"/>
</filter>
<filter id="filter5_dd_7_80" x="59.9998" y="23.0001" width="30.0006" height="29.2829" filterUnits="userSpaceOnUse" color-interpolation-filters="sRGB">
<feFlood flood-opacity="0" result="BackgroundImageFix"/>
<feColorMatrix in="SourceAlpha" type="matrix" values="0 0 0 0 0 0 0 0 0 0 0 0 0 0 0 0 0 0 127 0" result="hardAlpha"/>
<feOffset dy="2"/>
<feGaussianBlur stdDeviation="2"/>
<feColorMatrix type="matrix" values="0 0 0 0 0 0 0 0 0 0 0 0 0 0 0 0 0 0 0.06 0"/>
<feBlend mode="normal" in2="BackgroundImageFix" result="effect1_dropShadow_7_80"/>
<feColorMatrix in="SourceAlpha" type="matrix" values="0 0 0 0 0 0 0 0 0 0 0 0 0 0 0 0 0 0 127 0" result="hardAlpha"/>
<feOffset dy="3"/>
<feGaussianBlur stdDeviation="3"/>
<feColorMatrix type="matrix" values="0 0 0 0 0 0 0 0 0 0 0 0 0 0 0 0 0 0 0.1 0"/>
<feBlend mode="normal" in2="effect1_dropShadow_7_80" result="effect2_dropShadow_7_80"/>
<feBlend mode="normal" in="SourceGraphic" in2="effect2_dropShadow_7_80" result="shape"/>
</filter>
<radialGradient id="paint0_radial_7_80" cx="0" cy="0" r="1" gradientUnits="userSpaceOnUse" gradientTransform="translate(56 48) rotate(90) scale(69 72.9204)">
<stop offset="0.231884" stop-color="#C4C4C4"/>
<stop offset="0.724638" stop-color="#C4C4C4" stop-opacity="0"/>
</radialGradient>
</defs>
</svg>
